<svg width="24" height="24" viewBox="0 0 24 24" fill="none" xmlns="http://www.w3.org/2000/svg">
<g clip-path="url(#clip0_1537_4065)">
<path d="M17.25 19.5C17.913 19.5 18.5489 19.7634 19.0178 20.2322C19.4866 20.7011 19.75 21.337 19.75 22C19.75 21.337 20.0134 20.7011 20.4822 20.2322C20.9511 19.7634 21.587 19.5 22.25 19.5C21.587 19.5 20.9511 19.2366 20.4822 18.7678C20.0134 18.2989 19.75 17.663 19.75 17C19.75 17.663 19.4866 18.2989 19.0178 18.7678C18.5489 19.2366 17.913 19.5 17.25 19.5ZM17.25 4.5C17.913 4.5 18.5489 4.76339 19.0178 5.23223C19.4866 5.70107 19.75 6.33696 19.75 7C19.75 6.33696 20.0134 5.70107 20.4822 5.23223C20.9511 4.76339 21.587 4.5 22.25 4.5C21.587 4.5 20.9511 4.23661 20.4822 3.76777C20.0134 3.29893 19.75 2.66304 19.75 2C19.75 2.66304 19.4866 3.29893 19.0178 3.76777C18.5489 4.23661 17.913 4.5 17.25 4.5ZM8.5 19.5C8.5 17.5109 9.29018 15.6032 10.6967 14.1967C12.1032 12.7902 14.0109 12 16 12C14.0109 12 12.1032 11.2098 10.6967 9.8033C9.29018 8.39678 8.5 6.48912 8.5 4.5C8.5 6.48912 7.70982 8.39678 6.3033 9.8033C4.89678 11.2098 2.98912 12 1 12C2.98912 12 4.89678 12.7902 6.3033 14.1967C7.70982 15.6032 8.5 17.5109 8.5 19.5Z" fill="#FF6B17" stroke="#FF6B17" stroke-linecap="round" stroke-linejoin="round"/>
</g>
<defs>
<clipPath id="clip0_1537_4065">
<rect width="24" height="24" fill="white"/>
</clipPath>
</defs>
</svg>
